<svg xmlns="http://www.w3.org/2000/svg" width="512" height="512" viewBox="0 0 90 90"><path d="M74.5 0H50.1c-6.4 0-14.4 0.9-21.2 6.5 -5.1 4.4-7.6 10.4-7.6 15.8 0 9.2 7.1 18.5 19.6 18.5 1.2 0 2.5-0.1 3.8-0.2 -0.6 1.4-1.2 2.6-1.2 4.6 0 3.7 1.9 5.9 3.5 8 -5.3 0.4-15.2 0.9-22.6 5.4 -7 4.1-9.1 10.2-9.1 14.4C15.5 81.8 23.8 90 40.9 90c20.3 0 31.1-11.2 31.1-22.3 0-8.1-4.7-12.2-9.9-16.5l-4.3-3.3c-1.3-1.1-3.1-2.5-3.1-5.1 0-2.6 1.8-4.3 3.3-5.8 5-3.9 9.9-8 9.9-16.8 0-9-5.7-13.7-8.4-15.9h7.3L74.5 0zM64.1 72.3c0 7.3-6 12.8-17.4 12.8 -12.6 0-20.8-6-20.8-14.4 0-8.4 7.6-11.2 10.2-12.2 5-1.7 11.4-1.9 12.4-1.9 1.2 0 1.8 0 2.7 0.1C60.2 63.1 64.1 66.3 64.1 72.3zM54.6 34.2c-1.9 1.9-5.1 3.3-8 3.3 -10.2 0-14.8-13.1-14.8-21 0-3.1 0.6-6.3 2.6-8.7 1.9-2.4 5.2-3.9 8.3-3.9 9.8 0 14.9 13.2 14.9 21.7C57.6 27.8 57.4 31.5 54.6 34.2z" fill="#FFF"/></svg>
