<svg xmlns="http://www.w3.org/2000/svg" viewBox="0 0 18 18" width="512" height="512"><path d="M15.9 4c0.8-0.5 1.3-1.2 1.6-2 -0.8 0.4-1.6 0.7-2.4 0.9 -0.7-0.8-1.6-1.1-2.7-1.1 -1 0-1.9 0.4-2.6 1.1C9.1 3.5 8.8 4.4 8.8 5.4c0 0.3 0 0.6 0.1 0.8C5.8 6.1 3.3 4.8 1.3 2.4c-0.3 0.6-0.5 1.2-0.5 1.8 0 1.3 0.5 2.3 1.6 3.1C1.8 7.2 1.2 7.1 0.7 6.8c0 0.9 0.3 1.7 0.8 2.4 0.5 0.7 1.3 1.1 2.1 1.3 -0.3 0.1-0.6 0.1-1 0.1 -0.3 0-0.5 0-0.7-0.1 0.2 0.8 0.7 1.4 1.3 1.8 0.6 0.5 1.3 0.7 2.2 0.7 -1.3 1-2.9 1.6-4.6 1.6 -0.4 0-0.7 0-0.9 0 1.7 1.1 3.6 1.6 5.7 1.6 2.1 0 4-0.5 5.7-1.6 1.6-1.1 2.9-2.4 3.6-4 0.8-1.6 1.2-3.2 1.2-4.9V5.3c0.8-0.6 1.4-1.2 1.8-1.9C17.3 3.7 16.6 3.9 15.9 4z" fill="#FFF"/></svg>
