<svg xmlns="http://www.w3.org/2000/svg" width="512" height="512" viewBox="0 0 95.5 95.5"><path d="M43 67.3c-7.4-0.8-14.1-2.6-19.8-7.1 -0.7-0.6-1.4-1.1-2.1-1.7 -2.5-2.4-2.8-5.2-0.8-8 1.7-2.4 4.5-3.1 7.5-1.7 0.6 0.3 1.1 0.6 1.6 1 10.6 7.3 25.3 7.5 36 0.3 1.1-0.8 2.2-1.5 3.5-1.8 2.6-0.7 4.9 0.3 6.3 2.5 1.6 2.5 1.5 5-0.4 7 -3 3-6.5 5.2-10.5 6.8 -3.7 1.4-7.8 2.2-11.9 2.7 0.6 0.7 0.9 1 1.3 1.4 5.5 5.5 11 11 16.5 16.6 1.9 1.9 2.3 4.2 1.2 6.4 -1.1 2.4-3.6 4-6.1 3.8 -1.6-0.1-2.8-0.9-3.9-2 -4.1-4.2-8.4-8.3-12.4-12.5 -1.2-1.2-1.8-1-2.8 0.1 -4.2 4.3-8.4 8.5-12.7 12.7 -1.9 1.9-4.2 2.2-6.4 1.2 -2.4-1.1-3.9-3.6-3.7-6 0.1-1.6 0.9-2.9 2-4 5.4-5.4 10.9-10.9 16.3-16.3C42.2 68.2 42.5 67.8 43 67.3z" fill="#FFF"/><path d="M47.6 48.3c-13.2 0-24-11-24-24.2C23.7 10.7 34.5 0 47.8 0c13.4 0 24.1 11 24 24.5C71.8 37.7 60.9 48.4 47.6 48.3zM59.6 24.1c0-6.6-5.3-11.8-11.8-11.8 -6.6 0-11.9 5.3-11.8 11.9 0 6.5 5.3 11.7 11.9 11.7C54.4 36 59.6 30.7 59.6 24.1z" fill="#FFF"/></svg>
